<?xml version="1.0" encoding="utf-8"?>
<!-- Generator: Adobe Illustrator 16.0.0, SVG Export Plug-In . SVG Version: 6.00 Build 0)  -->
<!DOCTYPE svg PUBLIC "-//W3C//DTD SVG 1.1//EN" "http://www.w3.org/Graphics/SVG/1.1/DTD/svg11.dtd">
<svg version="1.1" id="Layer_1" xmlns="http://www.w3.org/2000/svg" xmlns:xlink="http://www.w3.org/1999/xlink" x="0px" y="0px"
	 width="1024px" height="1024px" viewBox="0 0 1024 1024" enable-background="new 0 0 1024 1024" xml:space="preserve">
<g transform="translate(0.000000,1024.000000) scale(0.100000,-0.100000)">
	<path display="none" d="M836.001,10223.998C412.002,10139.999,95,9821,15,9397.001C2.002,9327.001,0,8823.998,0,5120
		C0,1415.996,2.002,912.998,15,842.998C96.001,415.996,416.001,95.996,842.998,15C912.998,2.002,1416.001,0,5120,0
		c3704.003,0,4207.001,2.002,4277.001,15c427.002,80.996,747.002,400.996,827.998,827.998c12.998,70,15,572.998,15,4277.001
		c0,3703.999-2.002,4207.001-15,4277.001c-80.996,426.997-400.996,746.997-827.998,827.998c-70,12.998-571.006,15-4286.005,13.999
		C1598.999,10237.997,893.999,10236,836.001,10223.998z M6847.001,8869.999c230-27.002,432.998-52.002,450.996-55l32.002-6.001V5120
		V1430h-402.998h-404.003l-43.994,360c-24.004,197.998-47.002,360-50,360c-4.004,0-19.004-19.004-34.004-42.998
		C6305.996,1972.998,6155.996,1810,6019.003,1700c-237.002-190-489.004-307.998-777.002-362.002
		c-155-28.994-512.002-32.002-666.006-5c-385,67.998-693.994,229.004-947.998,495c-525.996,551.006-775,1499.004-686.997,2607.002
		c66.001,832.002,366.997,1520.996,843.999,1935c337.998,292.002,740.996,440,1202.002,440c515,0,955-188.999,1360.996-584.004
		l62.002-60v1377.001c0,890,2.998,1377.002,10,1377.002C6425,8919.999,6617.998,8897.997,6847.001,8869.999z"/>
	<path display="none" d="M5040,6080c-382.998-45.996-682.998-264.004-872.998-637.002c-172.998-340-245-703.994-254.004-1288.994
		c-5.996-344.004,4.004-551.006,37.002-786.006c89.004-637.002,320-1047.002,695-1235c132.002-67.002,290-97.998,490-97.002
		c367.998,2.002,629.004,107.002,920.996,370c87.002,78.008,216.006,223.008,302.002,338.008l52.002,68.994v1292.998v1293.008
		l-72.998,87.998c-105,125-277.998,287.998-386.006,362.002c-222.998,151.992-443.994,225.996-705.996,235
		C5174.003,6087.001,5080.996,6085,5040,6080z"/>
</g>
<rect x="0" width="1024" height="1024"/>
<g>
	<path fill="#FFFFFF" d="M861.898,284c0.302,1.52,0.458,3.034,0.458,4.545c0,1.213-0.156,2.426-0.458,3.636c0,0.906,0,1.817,0,2.727
		c0,0.907,0,1.667,0,2.271v0.454c-0.302,3.035-0.759,5.611-1.364,7.728c-0.604,4.243-1.354,8.029-2.27,11.358
		c-1.519,6.669-3.177,12.726-4.999,18.182c-1.209,1.519-2.426,3.635-3.635,6.362c-0.304,0.907-0.45,1.667-0.45,2.272
		c0,0.611,0,1.061,0,1.364c0,0.608,0,1.212,0,1.813c0,0.612-0.163,1.519-0.457,2.728c0,0.612-0.155,1.066-0.457,1.364
		c-0.302,0.307-0.611,0.612-0.907,0.907c-0.302,0-0.531,0.082-0.679,0.229c-0.161,0.155-0.383,0.53-0.684,1.136
		c-5.155,16.666-10.456,32.72-15.905,48.171c-5.154,15.449-10.307,30.605-15.454,45.442c-0.302,0.612-0.53,1.069-0.679,1.365
		c-0.153,0.306-0.31,0.53-0.455,0.681c-0.155,0.16-0.304,0.225-0.457,0.225c-0.156,0-0.222-0.147-0.222-0.45h-0.457
		c-0.305,0.609-0.613,1.062-0.907,1.365c-2.434,7.878-5.309,16.814-8.634,26.813c-4.247,12.113-8.184,24.079-11.82,35.9
		c-2.727,8.789-5.609,17.568-8.633,26.357c-0.302,0.613-0.458,1.209-0.458,1.814c0,0.309,0,0.53,0,0.686c0,0.154,0,0.383,0,0.676
		c-0.302,0.613-0.449,0.991-0.449,1.137c0,0.156-0.153,0.229-0.458,0.229l-0.455,0.457c-0.304,0.303-0.605,0.611-0.907,0.908
		c0,0.907-0.155,1.518-0.449,1.814c-0.31,0.912-0.613,1.819-0.915,2.727c-0.302,0.915-0.45,1.674-0.45,2.27
		c-4.247,12.122-8.035,24.244-11.36,36.358c-2.436,9.091-5.155,18.335-8.186,27.723l-0.45,0.457c-0.61,0.905-1.068,1.664-1.362,2.27
		c-0.31,0.613-0.613,1.438-0.907,2.501c-0.31,1.061-0.767,2.498-1.365,4.32c-0.309,0.905-0.537,1.666-0.686,2.27
		c-0.153,0.613-0.229,1.136-0.229,1.586c0,0.458-0.153,0.988-0.45,1.591c0,0.613,0,1.521,0,2.729
		c-0.31,0.302-0.455,0.679-0.455,1.137c0,0.454-0.155,0.987-0.457,1.591c-0.305,0.907-0.53,1.746-0.679,2.5
		c-0.156,0.76-0.229,1.29-0.229,1.592c0,0.304-0.156,0.304-0.45,0h-0.458h-0.457c-0.61,1.209-1.209,3.104-1.812,5.678
		c-0.613,2.581-1.216,5.228-1.821,7.954c-0.908,4.248-1.815,7.882-2.728,10.905c-0.907,3.333-1.971,6.666-3.18,9.998
		c-2.425,6.061-4.393,12.726-5.906,19.997c1.814-11.512,1.204-19.386-1.819-23.631c-2.426,5.449-4.542,12.268-6.364,20.443
		c-1.518,6.673-3.177,12.432-4.999,17.277c0.606-3.333,1.514-7.425,2.729-12.278c1.209-4.836,2.418-9.998,3.635-15.444
		c2.418-11.207,4.542-19.996,6.363-26.36c1.209-6.06,1.511-10.372,0.905-12.953c-0.61-2.566-2.426-2.948-5.446-1.137
		c-3.341,8.488-5.761,16.664-7.279,24.538c-1.208,5.766-2.719,11.523-4.541,17.274c-0.302,0-0.458,0.155-0.458,0.45
		c-0.907,0.914-1.812,1.521-2.719,1.822c-11.82,42.113-21.67,84.073-29.545,125.878c-0.907,5.457-2.725,12.424-5.448,20.901
		c-2.728,8.789-5.309,18.479-7.727,29.087c-1.822,5.147-3.635,9.843-5.456,14.09c0.301-5.758,0.751-11.363,1.364-16.816
		c-0.613,5.453-1.214,10.749-1.817,15.909c0,1.201-0.155,2.418-0.454,3.634c-0.611,1.514-1.217,3.024-1.817,4.545
		c0-8.789,0.455-17.579,1.359-26.36c-0.302,2.116-0.608,4.389-0.904,6.821c-0.307,2.418-0.455,4.688-0.455,6.812
		c-0.611,5.456-1.065,10.3-1.362,14.547c0-7.882,0.452-16.359,1.362-25.45c0.601-5.155,1.359-10.154,2.271-14.997
		c0.3-3.341,0.754-6.665,1.362-9.998c-2.428,10.292-4.396,16.656-5.908,19.089c-1.212,2.72-2.27,2.27-3.178-1.365
		c-1.518-8.184-0.909-24.39,1.812-48.623c-0.302,1.812-0.759,3.929-1.359,6.361c-0.305,2.722-0.682,5.293-1.139,7.721
		c-0.45,2.426-0.832,4.394-1.136,5.912c-0.302,1.513-0.608,2.116-0.908,1.814c-0.904-0.907-1.133-3.333-0.681-7.271
		c0.452-3.936,1.287-8.484,2.501-13.632c0.909-3.635,1.817-7.121,2.722-10.453c1.822-6.062,2.878-10.604,3.187-13.633
		c-0.909-0.605-1.899,1.289-2.958,5.683c-1.061,4.389-2.199,9.616-3.405,15.676c-0.61,2.426-1.065,4.697-1.365,6.819
		c-0.904,5.146-1.816,9.615-2.727,13.406c-0.907,3.782-1.817,6.28-2.727,7.497c0.603-4.542,1.209-9.091,1.819-13.633
		c0.907-11.215,2.418-21.972,4.542-32.264c-0.302-1.822-0.76-2.279-1.362-1.365c-0.608,0.908-1.137,2.803-1.592,5.678
		c-0.452,2.876-0.982,6.136-1.588,9.77c-0.307,2.426-0.61,4.844-0.91,7.276c-0.608,4.24-1.214,7.721-1.817,10.448
		c-0.613,2.727-1.065,3.938-1.364,3.634c0.91-7.269,1.822-13.632,2.729-19.081c0.904-5.454,2.113-11.67,3.634-18.639
		c-1.216,3.34-2.271,5.753-3.182,7.278c-0.307,2.116-0.452,4.386-0.452,6.812c0-2.121,0.146-4.245,0.452-6.361
		c-0.608,0.907-1.214,1.51-1.817,1.819c-0.613,0.297-1.136,0.45-1.593,0.45c-0.45,0-0.983-0.153-1.589-0.45
		c-0.307,0-0.759,0-1.359,0c-0.613,0-1.217,0.297-1.822,0.907c-0.61,0.605-1.362,1.968-2.27,4.092
		c-1.817,3.333-3.637,6.813-5.457,10.456c-3.03,6.052-5.448,10.292-7.271,12.717c-1.519,1.514-2.576,0.305-3.177-3.634
		c-0.91-3.937-0.91-12.268,0-24.995c0-4.852,0.826-12.341,2.501-22.495c1.658-10.144,3.857-21.13,6.587-32.942
		c-3.338,8.179-6.972,17.423-10.91,27.715c1.822-23.318,4.094-46.499,6.821-69.526c4.24-25.142,10.292-53.165,18.174-84.074
		c3.026-11.2,6.208-22.561,9.546-34.076c-5.454,6.361-10.911,12.718-16.362,19.081c-2.725,4.245-5.306,8.184-7.724,11.818
		c-0.909,1.518-1.976,2.883-3.185,4.092l-0.907,1.364l-0.452,0.45l-0.455,0.907c-0.909,1.216-1.976,2.433-3.185,3.642
		c-0.907,1.209-1.814,2.571-2.724,4.084c-1.212,1.519-2.275,2.883-3.183,4.092c-1.816,3.031-3.634,6.06-5.451,9.091
		c-8.487,11.812-17.573,23.933-27.27,36.355c-0.608,0.606-1.212,1.357-1.812,2.272c-0.613,0.61-1.217,1.362-1.822,2.27l-1.814,2.272
		l-0.455,0.457l-0.457,0.45l-0.907,1.819l-1.365,3.18l-0.907,1.362c-0.304,0.613-0.457,1.07-0.457,1.364l-3.635,5.457
		c-4.849,6.665-9.845,11.974-14.997,15.901c-5.152,4.248-10.151,7.425-14.995,9.541c-2.428,1.216-4.697,2.124-6.813,2.729
		c-0.91,0.309-1.674,0.61-2.274,0.915c-0.307,0-0.608,0-0.91,0c-0.907,0.301-1.814,0.603-2.725,0.904
		c-2.729,0.907-5.454,1.521-8.181,1.814c-2.727,0.611-6.062,0.76-9.998,0.458v0.457c-0.907,0-1.973-0.155-3.18-0.457
		c-2.124,0-4.092-0.148-5.909-0.458c-0.907-0.294-1.668-0.605-2.271-0.907c-3.941-1.209-7.427-2.573-10.45-4.092
		c-3.034-1.51-5.909-3.177-8.637-4.999h-0.454v-0.449h-0.455l-0.452-0.915l-0.91-1.354l-2.272-2.28l-4.089-5.448l-8.636-10.453
		l-8.179-10.456l-1.364-1.357v-0.457h-0.453l-0.457-1.362l-1.362-4.544l-2.728-9.546c-1.816-4.838-3.485-9.837-4.999-14.997
		c-2.428-7.271-4.699-14.54-6.815-21.811l-5.906-18.632l-1.365-4.549l-0.91-3.177l-1.816-6.364l-6.361-25.45l-6.816-25.903
		l-4.999-19.535c-5.155-22.113-10.303-44.084-15.452-65.896c0,0.608-0.075,0.984-0.227,1.136c-0.155,0.154-0.304,0.224-0.455,0.224
		c-0.155,0-0.382,0-0.681,0c-0.61,0.307-0.91,0.612-0.91,0.911c-7.269,19.694-14.539,38.629-21.813,56.802
		c0,0.613-0.075,0.988-0.226,1.137c-0.156,0.16-0.382,0.229-0.682,0.229h-0.455c-0.304,0-0.61,0.309-0.909,0.907
		c-1.519,4.851-3.486,10.453-5.906,16.817c-2.728,7.268-5.304,14.692-7.727,22.266c-1.817,5.456-3.793,10.905-5.906,16.361
		c-0.307,0.302-0.385,0.53-0.229,0.679c0.15,0.161,0.229,0.383,0.229,0.684c0,0.305,0,0.613,0,0.907c0,0.31-0.078,0.458-0.229,0.458
		c-0.156,0-0.382,0.155-0.682,0.45c-0.307,0-0.61,0.163-0.909,0.457c0,0.61-0.156,1.068-0.455,1.364c0,0.302-0.075,0.76-0.227,1.362
		c-0.155,0.613-0.382,1.217-0.681,1.815c-2.728,6.975-5.157,14.09-7.271,21.358c-1.521,6.069-3.486,12.277-5.909,18.631v0.458
		c-0.61,0.304-1.062,0.686-1.362,1.136c-0.306,0.457-0.532,0.987-0.681,1.594c-0.158,0.61-0.533,1.518-1.136,2.727
		c0,0.613-0.081,1.136-0.229,1.586c-0.156,0.458-0.227,0.759-0.227,0.915c0,0.153,0,0.382,0,0.676c0,0.613-0.156,1.217-0.455,1.822
		c0,0.302,0,0.611,0,0.907c0,0.302-0.156,0.611-0.455,0.907c0,0.611-0.075,1.134-0.226,1.591c-0.156,0.458-0.229,0.843-0.229,1.137
		h-0.452c-0.307-0.294-0.455-0.294-0.455,0c-0.61,0.613-1.136,1.666-1.591,3.185c-0.455,1.521-0.837,3.179-1.136,4.999
		c-0.611,2.722-1.214,4.999-1.817,6.813c-0.91,2.124-1.817,4.394-2.727,6.818c-1.82,3.637-3.338,7.573-4.545,11.813
		c1.207-7.271,0.297-12.416-2.727-15.455c-2.431,3.039-4.089,7.123-4.999,12.277c-0.91,4.245-2.272,8.028-4.089,11.36
		c0.907-3.03,1.816-6.818,2.725-11.36c1.208-4.239,2.345-8.479,3.407-12.728c1.059-4.239,1.891-7.726,2.501-10.453
		c0.907-3.637,0.907-6.363,0-8.178c-0.909-1.82-2.576-2.27-4.999-1.362c-2.727,4.851-4.544,9.85-5.451,14.994
		c-0.91,3.637-1.976,7.271-3.182,10.905c-0.307,0-0.455,0.156-0.455,0.458c-0.91,0.302-1.669,0.61-2.272,0.907
		c-8.789,26.056-16.814,52.111-24.085,78.16c-0.91,3.34-2.728,7.58-5.454,12.725c-1.214,2.73-2.576,5.457-4.09,8.184
		c-0.304,0.305-0.454,0.613-0.454,0.907c-0.611,1.217-1.214,2.426-1.817,3.635c-0.611,1.219-1.214,2.581-1.817,4.095
		c-0.91,1.518-1.819,3.028-2.727,4.541c-0.305,0.31-0.611,0.611-0.91,0.905c-0.61,0.914-1.214,1.822-1.817,2.729
		c0.299-2.418,0.604-4.844,0.907-7.271c0.3-0.904,0.458-1.968,0.458-3.177c-0.307,2.124-0.762,4.247-1.365,6.356
		c0,0.912-0.155,1.819-0.455,2.727c-0.304,0.915-0.61,1.822-0.907,2.729c-0.613,0.905-1.364,1.819-2.271,2.728l0.907-7.727
		c0.603-2.729,1.058-5.449,1.364-8.179c-0.307,1.815-0.762,4.087-1.364,6.814c0,0.61-0.156,1.067-0.455,1.364
		c0,0.611,0,1.068,0,1.362c-0.61,2.729-1.065,5.155-1.362,7.271c0-2.116,0.148-4.542,0.452-7.271c0.3-1.209,0.606-2.418,0.91-3.634
		v-0.458c0.299-1.201,0.605-2.566,0.91-4.084c0-0.604,0.147-1.365,0.454-2.277c0-0.598,0.148-1.204,0.455-1.814
		c0.297-1.209,0.604-2.426,0.907-3.635c0.604-2.729,1.207-5.146,1.82-7.271c-2.431,6.062-4.398,9.845-5.909,11.362
		c-1.521,1.519-2.579,1.061-3.182-1.364c-0.611-2.426-0.759-6.361-0.455-11.818c0-2.42,0.299-4.999,0.91-7.729
		c0-0.294,0-0.603,0-0.904c0-0.297,0-0.754,0-1.365c0.296-2.729,0.754-5.75,1.362-9.091c-0.305,0.915-0.453,1.976-0.453,3.185
		c-0.613,1.519-1.139,3.111-1.591,4.771c-0.455,1.666-0.839,3.031-1.136,4.092c-0.305,1.063-0.611,1.586-0.91,1.586
		c-0.91-0.907-1.136-2.566-0.681-4.999c0.455-2.418,1.286-5.147,2.498-8.176c0.605-1.822,1.206-3.481,1.819-4.999
		c1.817-4.542,2.876-7.875,3.18-9.998c-0.91-0.294-1.817,0.839-2.727,3.405c-0.908,2.581-1.974,5.841-3.18,9.77
		c-0.305,1.525-0.611,2.883-0.91,4.092c-0.61,2.433-1.362,4.705-2.271,6.821c-0.91,3.028-1.974,4.999-3.18,5.903
		c0.907-3.634,1.511-7.269,1.817-10.902c0.299-1.209,0.603-2.426,0.907-3.635c0.603-5.154,1.661-9.998,3.182-14.547
		c-0.307-1.201-0.759-1.514-1.365-0.907c-0.607,0.61-1.133,1.822-1.588,3.634c-0.455,1.822-0.837,3.946-1.136,6.364
		c-0.611,1.518-1.066,3.028-1.365,4.541c-0.304,2.434-0.681,4.475-1.136,6.133c-0.455,1.674-0.988,2.501-1.591,2.501
		c0.603-3.325,1.209-6.2,1.816-8.634c0.606-2.417,1.209-4.999,1.82-7.721c0.603-2.116,1.362-4.549,2.271-7.276
		c-1.214,1.822-2.123,3.185-2.727,4.092c-0.307,1.519-0.455,3.031-0.455,4.542c0-1.201,0-2.566,0-4.084
		c-0.91,0.61-1.744,0.907-2.498,0.907c-0.762,0-1.442-0.148-2.046-0.458c-0.907-0.294-1.747-0.377-2.498-0.221
		c-0.76,0.155-1.747,0.98-2.956,2.498c-1.817,2.116-3.634,4.24-5.451,6.356c-2.729,3.642-4.999,6.067-6.816,7.276
		c-1.819,0.907-3.033,0-3.637-2.728c-0.611-2.727-0.455-8.022,0.455-15.901c-0.307-3.333,0.299-8.187,1.816-14.548
		c1.511-6.363,3.331-13.178,5.452-20.446c-1.519,2.426-3.029,4.999-4.542,7.719c-1.817,3.039-3.486,6.07-4.999,9.091
		c0-3.929,0.148-7.726,0.455-11.36c0.297-1.814,0.452-3.634,0.452-5.449c0.299-1.821,0.455-3.642,0.455-5.456
		c0.604-7.572,1.362-14.997,2.272-22.266c6.057-34.544,15.6-70.59,28.632-108.162c0.601-1.812,1.206-3.634,1.817-5.449v-0.458
		c5.147-14.841,12.723-36.649,22.721-65.433c2.727-8.186,5.454-16.514,8.181-25c6.057-17.565,12.268-35.744,18.632-54.529
		c8.181-23.934,16.203-47.413,24.085-70.442v-0.907c3.635-11.207,7.724-22.111,12.271-32.721c0.909-0.604,1.661-1.512,2.271-2.725
		c0.297-0.298,0.455-0.604,0.455-0.91c0-0.295,0-0.604,0-0.907c-0.307-0.298-0.455-0.604-0.455-0.91
		c0-0.299,0.148-0.753,0.455-1.361c0-0.302,0.07-0.527,0.227-0.687c0.148-0.147,0.374-0.224,0.681-0.224
		c0.3,0,0.525-0.07,0.684-0.229c0.148-0.152,0.227-0.377,0.227-0.683c4.24-10.603,8.478-21.05,12.723-31.357l2.274-7.269
		l0.455-1.819l0.452-0.91v-0.45v-0.458l0.455-0.458c1.209-3.634,3.026-7.114,5.454-10.447c0.907-1.516,1.965-3.027,3.18-4.549
		c0.603-0.601,1.208-1.361,1.819-2.271c0.604-0.604,1.058-1.054,1.362-1.365c0.299-0.294,0.603-0.601,0.909-0.906
		c0.604-0.605,1.511-1.365,2.725-2.271c3.637-3.636,8.025-6.511,13.181-8.635c4.843-2.425,9.691-4.092,14.542-4.999
		c1.206,0,2.272-0.151,3.182-0.456c1.207,0,2.272,0,3.18,0c2.423-0.295,4.695-0.295,6.816,0c4.843,0.305,9.39,1.064,13.635,2.271
		c2.113,0.91,4.237,1.821,6.361,2.727c0.909,0.307,1.817,0.76,2.727,1.365l1.365,0.458c1.206,0.608,2.568,1.36,4.089,2.271
		c2.421,1.813,4.841,3.789,7.271,5.905c0.603,0.612,1.058,1.216,1.362,1.821l0.909,0.45l1.362,1.365
		c0.604,0.91,1.209,1.821,1.817,2.728c0.91,0.906,1.661,1.817,2.274,2.727l0.907,1.365c0.604,0.608,1.059,1.364,1.365,2.271
		l0.907,1.363l0.455,0.454l0.907,1.36l0.457,1.365l0.453,0.91l0.909,1.818l0.455,1.364l0.452,0.907
		c1.207,2.433,1.968,4.397,2.272,5.909l0.457,0.454l1.362,4.545c1.207,2.724,2.114,5.304,2.728,7.723
		c3.327,9.997,6.361,19.7,9.088,29.086c0.91,6.064,1.817,11.974,2.727,17.726c0.908,2.727,1.817,5.451,2.728,8.176
		c0.604,1.523,0.907,3.034,0.907,4.549c0.299,3.03,1.365,5.758,3.182,8.177c1.514,5.758,3.023,11.667,4.544,17.725
		c3.638,14.54,7.57,27.571,11.815,39.08h0.455v1.817c0.299,0.307,0.604,0.76,0.907,1.365c0,0.306,0.151,0.612,0.458,0.907
		c0,0.309-0.159,0.611-0.458,0.91c12.726,51.202,24.837,102.552,36.358,154.061l0.45-0.457l0.457-0.457
		c0.3-0.606,0.604-1.057,0.907-1.365c0.91-1.201,1.82-2.418,2.728-3.635c3.634-5.146,7.271-10.292,10.905-15.447
		c1.209-1.819,2.573-3.634,4.092-5.456c9.998-14.235,20.6-29.233,31.812-44.989c8.478-11.813,16.96-23.931,25.447-36.354
		c14.842-21.204,29.992-42.718,45.446-64.532c12.115-17.565,24.383-35.143,36.806-52.712c6.364-8.479,12.874-17.113,19.547-25.905
		c6.361-8.785,13.175-17.721,20.443-26.812c0.304-0.298,0.605-0.604,0.915-0.906c2.116-2.427,4.232-4.999,6.356-7.728
		c2.116-2.728,4.697-5.604,7.726-8.633c1.513-1.512,3.185-3.186,4.999-4.999l0.915-0.911l0.907-0.454
		c0-0.298,0.146-0.456,0.45-0.456c0.302-0.295,0.759-0.753,1.362-1.365c1.513-1.201,3.332-2.565,5.456-4.084l1.822-1.364
		c0.596-0.303,1.357-0.752,2.27-1.365c0.605-0.301,1.365-0.751,2.272-1.363c1.209-0.604,2.417-1.209,3.634-1.821l0.907-0.45
		l1.365-0.458c0.904-0.604,1.819-1.058,2.727-1.365c0.907-0.294,1.814-0.604,2.728-0.906l0.907-0.458h0.907
		c0.605-0.295,1.364-0.601,2.27-0.906c1.521-0.299,3.031-0.605,4.549-0.907h0.907l1.822-0.458c0.907,0,1.961-0.147,3.177-0.454
		c2.426,0,4.846,0,7.271,0h0.912h1.357c0.605,0,1.364,0.158,2.279,0.454c1.812,0,3.479,0.155,4.999,0.458
		c1.812,0.302,3.479,0.759,4.999,1.363c0.905,0.303,1.812,0.608,2.72,0.908l1.365,0.454l1.361,0.452
		c3.938,1.52,7.573,3.34,10.913,5.457c0.907,0.612,1.815,1.213,2.72,1.813l0.458,0.458l6.363,5.906h0.457l0.908,0.91l0.907,0.911
		c0.904,1.213,1.968,2.425,3.184,3.634c1.812,2.729,3.635,5.611,5.449,8.635c0.604,1.518,1.209,2.883,1.82,4.092l0.907,1.813
		c0.294,1.216,0.751,2.429,1.364,3.635c0.294,1.217,0.604,2.433,0.907,3.638l0.455,1.36l0.45,0.911
		c0.304,1.523,0.605,3.182,0.915,4.999v0.91v0.907l0.449,1.364v1.818V284z M302.032,678.913c-0.611,2.723-0.988,4.313-1.137,4.771
		c-0.155,0.45-0.08-0.832,0.227-3.863C301.421,679.52,301.726,679.215,302.032,678.913z M326.569,636.644v0.458V636.644z
		 M721.022,708.908c-0.904,4.541-1.518,7.195-1.812,7.947c-0.312,0.759,0-1.137,0.907-5.678
		C720.412,710.574,720.722,709.812,721.022,708.908z M751.018,639.828v0.458V639.828z"/>
</g>
</svg>
